<svg width="36" height="36" fill="none" xmlns="http://www.w3.org/2000/svg"><path d="M14.17.168c-4.33.88-7.7 4.825-8.364 9.777l-.11.87H3.211c-2.03 0-2.529.032-2.75.159-.324.19-.462.456-.462.89 0 .425 2.742 19.152 2.87 19.629.527 1.898 2.013 3.616 3.693 4.252l.683.255H18c11.622 0 10.892.032 12.037-.53 1.338-.658 2.63-2.323 3.092-3.977.139-.51 2.871-19.204 2.871-19.639a1.07 1.07 0 00-.526-.922c-.13-.075-1.034-.117-2.686-.117h-2.483l-.111-.87c-.665-4.994-4.052-8.918-8.446-9.787-1.117-.212-6.49-.212-7.579.01zm7.568 2.153c3.453.817 6.093 4.008 6.647 8.038l.064.456H7.551l.064-.456c.277-2.036 1.163-4.019 2.419-5.44 1.144-1.294 2.621-2.216 4.181-2.598 1.182-.286 6.323-.286 7.523 0zM33.97 12.999c0 .191-2.501 17.433-2.575 17.699-.35 1.41-1.366 2.587-2.622 3.043-.507.18-1.135.19-10.772.19s-10.265-.01-10.772-.19c-1.256-.456-2.271-1.633-2.622-3.043-.074-.265-2.575-17.508-2.575-17.699 0-.032 7.181-.063 15.969-.063s15.97.031 15.97.063z" fill="#242424"/><path d="M8.64 17.771c-.175.212-.24.392-.24.7 0 .488 1.246 9.936 1.385 10.498.12.498.396.721.886.721.452 0 .748-.233.858-.689.056-.223-.129-1.835-.646-5.673-.692-5.186-.72-5.355-.96-5.589-.35-.35-.96-.339-1.283.032zm8.908-.127c-.471.297-.462.265-.471 6.034v5.397l.268.308c.378.434.932.434 1.31 0l.268-.308V23.71c0-3.923-.028-5.429-.11-5.63-.204-.51-.813-.721-1.265-.435zm8.658 0c-.13.095-.286.297-.341.456-.102.297-1.403 10.265-1.403 10.71 0 .127.11.371.24.552.193.275.304.328.627.328.49 0 .766-.223.886-.72.139-.573 1.385-9.937 1.385-10.425 0-.795-.775-1.293-1.394-.901z" fill="#242424"/></svg>