<svg width="38" height="32" fill="none" xmlns="http://www.w3.org/2000/svg"><path d="M9.218.09C4.82.66 1.184 3.969.187 8.308c-.235 1.03-.251 3.092-.034 4.214.511 2.597 1.986 5.521 4.206 8.294.896 1.131 4.004 4.239 5.311 5.337 2.539 2.102 5.312 3.979 7.992 5.378.503.268.997.469 1.14.469.427 0 2.865-1.357 5.026-2.79 2.614-1.734 4.558-3.342 6.962-5.747.947-.946 2.053-2.144 2.455-2.647 2.211-2.765 3.694-5.697 4.205-8.294.218-1.122.201-3.183-.033-4.214-.83-3.594-3.51-6.576-6.954-7.724A10.68 10.68 0 0027.39.023c-2.907-.134-5.73.93-7.85 2.974l-.737.712-.746-.72C15.67.727 12.476-.33 9.218.09zm3.569 2.036c1.952.494 3.795 1.734 4.968 3.326.494.67.594.737 1.047.737.452 0 .553-.067 1.047-.737 1.173-1.584 2.99-2.807 4.968-3.335.712-.192.98-.217 2.153-.217s1.44.025 2.153.217c3.267.872 5.738 3.402 6.484 6.635.201.88.21 2.497 0 3.469-.436 2.102-1.474 4.264-3.091 6.459-2.203 2.99-5.672 6.216-9.375 8.746-1.08.737-2.982 1.893-3.853 2.354l-.486.251-.478-.251c-.846-.436-2.722-1.583-3.77-2.287-3.72-2.53-7.238-5.797-9.466-8.813-1.6-2.17-2.63-4.306-3.092-6.41-.217-1.013-.2-2.722.034-3.677.863-3.46 3.77-6.099 7.355-6.668.847-.134 2.489-.034 3.402.2z" fill="#242424"/></svg>