<svg width="22" height="23" fill="none" xmlns="http://www.w3.org/2000/svg"><path d="M8.422.98a12.1 12.1 0 00-1.06.184C2.284 2.293-.903 7.274.226 12.308c.186.824.388 1.38.796 2.183.44.877.907 1.528 1.639 2.273 1.506 1.549 3.304 2.457 5.49 2.771.832.116 2.28.084 3.097-.078a9.925 9.925 0 003.978-1.78l.308-.236 2.61 2.577c1.432 1.418 2.673 2.604 2.752 2.635.223.08.404.063.648-.052a.787.787 0 00.397-.982c-.032-.078-1.23-1.307-2.662-2.724l-2.605-2.582.24-.305a9.798 9.798 0 001.802-3.905c.101-.483.117-.709.122-1.785 0-1.086-.015-1.307-.122-1.826-.594-2.903-2.402-5.255-5.022-6.546a12.658 12.658 0 00-1.29-.551A9.953 9.953 0 008.423.98zm2.567 1.717c3.178.682 5.527 3.06 6.158 6.23.128.651.133 2.021.006 2.704-.594 3.18-3.135 5.695-6.35 6.283-.689.125-2.073.12-2.73-.006-3.22-.624-5.586-2.923-6.297-6.11-.17-.745-.17-2.278 0-3.039a7.698 7.698 0 012.159-3.926c1.284-1.27 2.705-1.958 4.668-2.252.387-.058 1.92.016 2.386.116z" fill="#242424"/></svg>