<svg width="25" height="24" fill="none" xmlns="http://www.w3.org/2000/svg"><path d="M12.138.027C11.144.093 9.66.42 8.715.783c-3.548 1.374-6.31 4.409-7.286 8.009-.798 2.939-.506 5.902.84 8.591.964 1.928 2.553 3.677 4.363 4.802a12.068 12.068 0 0013.75-.708c.28-.214.786-.678 1.131-1.024 1.815-1.82 2.958-4.087 3.37-6.693.142-.899.142-2.624 0-3.51-.424-2.642-1.555-4.88-3.4-6.724-2.482-2.481-5.821-3.73-9.345-3.499zm1.994 1.506c4.262.517 7.726 3.403 8.952 7.455.334 1.107.417 1.707.417 3.017 0 1.308-.083 1.91-.417 3.01-.375 1.25-.886 2.25-1.696 3.326-.387.518-.804.97-.845.916a5.882 5.882 0 01-.185-.5c-.672-1.927-2.149-3.516-4.09-4.402l-.392-.179.262-.208c.601-.476 1.244-1.452 1.506-2.29.202-.637.238-1.863.065-2.53-.35-1.416-1.256-2.552-2.535-3.189-.75-.368-1.316-.5-2.173-.5s-1.423.132-2.173.5c-1.202.595-2.06 1.613-2.47 2.922-.167.535-.226 1.642-.12 2.255.102.583.37 1.255.71 1.773.273.422 1.04 1.237 1.16 1.237.036 0-.262.161-.649.351-1.81.899-3.173 2.422-3.816 4.26a5.816 5.816 0 01-.184.5c-.042.054-.458-.398-.845-.916-2.125-2.832-2.709-6.354-1.596-9.68C4.286 4.882 7.65 2.104 11.62 1.562c.714-.095 1.845-.107 2.512-.03zm-.47 5.438c1.791.38 3.011 2.178 2.648 3.903-.416 1.97-2.392 3.195-4.232 2.63-2.512-.768-3.262-3.862-1.375-5.647.84-.797 1.887-1.112 2.959-.886zm.035 8.193a6.377 6.377 0 013.834 1.833c.482.481 1.012 1.237 1.274 1.82.166.38.446 1.345.446 1.547 0 .274-1.702 1.22-2.935 1.624-1.256.417-1.898.518-3.345.512-1.119 0-1.327-.018-2-.16a10.85 10.85 0 01-2.613-.899c-.78-.387-1.607-.922-1.607-1.047 0-.268.273-1.166.5-1.642.345-.726.678-1.208 1.22-1.755.97-.982 2.393-1.678 3.756-1.833.643-.072.833-.072 1.47 0z" fill="#fff"/></svg>