<svg width="22" height="23" viewBox="0 0 22 23" fill="none" xmlns="http://www.w3.org/2000/svg">
<path d="M8.42226 0.980301C8.17297 1.00655 7.69561 1.09053 7.36145 1.16401C2.28546 2.29255 -0.90228 7.27385 0.227485 12.3076C0.413127 13.1317 0.614682 13.6881 1.02309 14.4912C1.46333 15.3678 1.93009 16.0187 2.66205 16.764C4.1684 18.3125 5.96648 19.2206 8.15175 19.5355C8.98449 19.651 10.4325 19.6195 11.2493 19.4568C12.6867 19.1681 14.0923 18.5382 15.2274 17.6774L15.535 17.4412L18.1446 20.0184C19.5767 21.4356 20.8179 22.6219 20.8974 22.6534C21.1202 22.7321 21.3005 22.7164 21.5445 22.6009C21.9105 22.4277 22.0802 22.0025 21.9423 21.6194C21.9105 21.5406 20.7118 20.3124 19.2797 18.8951L16.6754 16.3126L16.9141 16.0082C17.7786 14.8954 18.4045 13.5411 18.7174 12.1029C18.8182 11.62 18.8341 11.3943 18.8394 10.3183C18.8394 9.23172 18.8235 9.01126 18.7174 8.49161C18.1234 5.58892 16.3147 3.23737 13.6945 1.94611C13.2596 1.73091 12.6761 1.4842 12.4056 1.39497C11.1326 0.990797 9.74297 0.843826 8.42226 0.980301ZM10.9894 2.69672C14.1666 3.37909 16.5163 5.75689 17.1474 8.92728C17.2747 9.57815 17.28 10.9481 17.1528 11.6305C16.5587 14.8114 14.018 17.3257 10.8038 17.9136C10.1143 18.0395 8.7299 18.0343 8.07219 17.9083C4.85263 17.2837 2.48702 14.9846 1.77627 11.7985C1.60654 11.0531 1.60654 9.52042 1.77627 8.75931C2.11573 7.22136 2.82117 5.93535 3.93502 4.83306C5.21861 3.56281 6.6401 2.87519 8.6026 2.58124C8.9898 2.5235 10.5227 2.59699 10.9894 2.69672Z" fill="#242424"/>
</svg>
