<svg width="45" height="45" viewBox="0 0 45 45" fill="none" xmlns="http://www.w3.org/2000/svg">
<rect x="1" y="1" width="43" height="43" rx="21.5" stroke="#D1D3DA" stroke-width="2"/>
<path d="M20.3357 31.712L30 22.496L20.3357 13.28C20.0723 13.0296 19.7189 12.8928 19.3532 12.8995C18.9875 12.9063 18.6396 13.0561 18.3858 13.316C18.1321 13.5759 17.9934 13.9246 18.0002 14.2855C18.0071 14.6463 18.1589 14.9896 18.4223 15.24L26.0354 22.496L18.4223 29.76C18.1589 30.0104 18.0071 30.3537 18.0002 30.7145C17.9934 31.0754 18.1321 31.4241 18.3858 31.684C18.6396 31.9439 18.9875 32.0937 19.3532 32.1005C19.7189 32.1072 20.0723 31.9704 20.3357 31.72V31.712Z" fill="#D1D3DA"/>
</svg>
